<svg
  xmlns="http://www.w3.org/2000/svg"
  viewBox="0 0 320 100"
  role="img"
  aria-labelledby="azani-logo-title"
>
  <title id="azani-logo-title">Azani</title>
  <g transform="translate(28 15)">
    <path
      d="M9 22c8-11 24-10 31 2 7-5 18-1 20 9h6c5 0 9 4 9 10 0 11-11 19-31 19C21 62 6 53 6 38c0-6 1-10 3-16Z"
      fill="#FFF9E5"
      stroke="#C24D79"
      stroke-width="5.2"
      stroke-linejoin="round"
    />
    <path d="M26 33h30" stroke="#267CB8" stroke-width="4.5" stroke-linecap="round" />
    <path d="M32 43h20" stroke="#93D8BB" stroke-width="4.5" stroke-linecap="round" />
    <circle cx="28" cy="60" r="4.5" fill="#342A33" />
    <circle cx="63" cy="60" r="4.5" fill="#342A33" />
  </g>
  <path
    fill="#342A33"
    d="M132.702 66.97Q131.739 68.556 129.346 69.561Q126.953 70.566 124.348 70.566Q119.448 70.566 116.645 68.117Q113.841 65.667 113.841 61.164Q113.841 55.896 117.792 52.923Q121.742 49.949 129.021 49.949Q130.267 49.949 131.966 50.374Q131.966 45.021 125.197 45.021Q121.204 45.021 118.514 46.353L116.984 40.858Q120.638 39.103 125.679 39.103Q132.617 39.103 135.846 42.26Q139.074 45.418 139.074 54.226V60.711Q139.074 66.771 141.51 68.329Q140.632 69.858 139.556 70.212Q138.479 70.566 137.092 70.566Q135.563 70.566 134.345 69.434Q133.127 68.301 132.702 66.97ZM132.022 55.727Q130.21 55.358 129.304 55.358Q120.921 55.358 120.921 60.853Q120.921 64.931 125.65 64.931Q132.022 64.931 132.022 58.559ZM142.338 70V67.593L158.792 45.843H142.621V39.669H169.129V42.161L153.27 63.826H169.299V70ZM189.442 66.97Q188.479 68.556 186.086 69.561Q183.693 70.566 181.088 70.566Q176.188 70.566 173.385 68.117Q170.581 65.667 170.581 61.164Q170.581 55.896 174.532 52.923Q178.482 49.949 185.761 49.949Q187.007 49.949 188.706 50.374Q188.706 45.021 181.937 45.021Q177.944 45.021 175.254 46.353L173.724 40.858Q177.378 39.103 182.419 39.103Q189.357 39.103 192.586 42.26Q195.814 45.418 195.814 54.226V60.711Q195.814 66.771 198.25 68.329Q197.372 69.858 196.296 70.212Q195.22 70.566 193.832 70.566Q192.303 70.566 191.085 69.434Q189.867 68.301 189.442 66.97ZM188.763 55.727Q186.95 55.358 186.044 55.358Q177.661 55.358 177.661 60.853Q177.661 64.931 182.39 64.931Q188.763 64.931 188.763 58.559ZM220.573 70V52.47Q220.573 48.59 219.087 46.806Q217.6 45.021 214.23 45.021Q212.672 45.021 210.902 45.899Q209.132 46.777 208.141 48.08V70H201.061V39.669H206.158L207.461 42.501Q210.35 39.103 215.986 39.103Q221.395 39.103 224.524 42.345Q227.654 45.588 227.654 51.394V70ZM238.451 27.916Q240.15 27.916 241.354 29.12Q242.557 30.323 242.557 32.022Q242.557 33.722 241.354 34.925Q240.15 36.129 238.451 36.129Q236.752 36.129 235.548 34.925Q234.344 33.722 234.344 32.022Q234.344 30.323 235.548 29.12Q236.752 27.916 238.451 27.916ZM234.797 70V45.475H230.918V39.669H241.962V70Z"
  />
</svg>
