<svg width="640" height="640" viewBox="0 0 640 640" fill="none" xmlns="http://www.w3.org/2000/svg">
  <rect width="640" height="640" rx="56" fill="#FFF2F7"/>
  <circle cx="498" cy="118" r="82" fill="#FFE7A3"/>
  <circle cx="112" cy="528" r="74" fill="#DDF6EE"/>
  <rect x="170" y="132" width="300" height="388" rx="34" fill="#FFFFFF" stroke="#F2B8CA" stroke-width="8"/>
  <path d="M204 180H436V294C403 318 363 332 320 332C277 332 237 318 204 294V180Z" fill="#F9D9E4"/>
  <path d="M198 332C235 358 276 371 320 371C364 371 405 358 442 332V481C442 501 426 517 406 517H234C214 517 198 501 198 481V332Z" fill="#F7FAFF"/>
  <path d="M230 214H410" stroke="#E74F8A" stroke-width="14" stroke-linecap="round"/>
  <path d="M251 254H389" stroke="#E74F8A" stroke-width="10" stroke-linecap="round" opacity=".45"/>
  <path d="M258 410C292 436 347 436 382 410" stroke="#A8DCCB" stroke-width="16" stroke-linecap="round"/>
  <text x="320" y="108" text-anchor="middle" fill="#3C3033" font-family="Arial, sans-serif" font-size="34" font-weight="700">Premium Care</text>
  <text x="320" y="570" text-anchor="middle" fill="#8F506B" font-family="Arial, sans-serif" font-size="26" font-weight="700">Diapers</text>
</svg>
