<?xml version="1.0" encoding="UTF-8"?>
<svg viewBox="0 0 260 200" xmlns="http://www.w3.org/2000/svg" aria-label="azani pram" data-om-id="jsx:/Inline Babel script:1482:54:5" data-om-text-attrs="{&quot;aria-label&quot;:&quot;txt:/Inline Babel script:1555:1567&quot;}" width="512" height="512 * 200 / 260"><path d="M178 78 Q210 50 240 50" stroke="#3a2e1f" stroke-width="9" fill="none" stroke-linecap="round" data-om-id="jsx:/Inline Babel script:1601:56:7"/><circle cx="240" cy="50" r="5.5" fill="#3a2e1f" data-om-id="jsx:/Inline Babel script:1712:58:7"/><path d="M48 110 A60 60 0 0 1 168 110 Z" fill="#d6a23a" data-om-id="jsx:/Inline Babel script:1805:60:7"/><path d="M100 53 A60 60 0 0 1 168 110" stroke="#fbf4e6" stroke-opacity="0.45" stroke-width="2.5" fill="none" data-om-id="jsx:/Inline Babel script:1899:62:7"/><path d="M40 110 L188 110 L176 162 Q175 168 169 168 L57 168 Q51 168 50 162 Z" fill="#d6a23a" data-om-id="jsx:/Inline Babel script:2042:65:7"/><circle cx="98" cy="78" r="9" fill="#f4c95d" data-om-id="jsx:/Inline Babel script:2185:68:7"/><circle cx="70" cy="184" r="16" fill="#3a2e1f" data-om-id="jsx:/Inline Babel script:2305:70:7"/><circle cx="70" cy="184" r="5" fill="#fbf4e6" data-om-id="jsx:/Inline Babel script:2357:71:7"/><circle cx="162" cy="184" r="12" fill="#3a2e1f" data-om-id="jsx:/Inline Babel script:2407:72:7"/><circle cx="162" cy="184" r="4" fill="#fbf4e6" data-om-id="jsx:/Inline Babel script:2460:73:7"/><line x1="70" y1="184" x2="162" y2="184" stroke="#3a2e1f" stroke-width="2.5" stroke-linecap="round" opacity="0.6" data-om-id="jsx:/Inline Babel script:2535:75:7"/></svg>